<svg width="160" height="64" viewBox="0 0 160 64" fill="none" xmlns="http://www.w3.org/2000/svg">
<path d="M0.25 12.8761C0.25 5.76481 6.01481 0 13.1261 0H146.393C153.504 0 159.269 5.76481 159.269 12.8761V50.0535V63.4775C159.269 63.5964 159.143 63.6724 159.038 63.6165L136.441 51.5677C134.576 50.5735 132.496 50.0535 130.382 50.0535H13.1261C6.01482 50.0535 0.25 44.2887 0.25 37.1774V12.8761Z" fill="white"/>
<path d="M40.0627 27.2192H31.7963V25.1848H34.835V15.8368H31.7963V13.8024H37.1785V25.1848H40.0627V27.2192ZM53.4441 22.9701C53.4441 24.3608 52.869 25.4595 51.7187 26.2664C50.5685 27.0733 49.135 27.4768 47.4181 27.4768C45.7013 27.4768 44.3021 27.1076 43.2205 26.3694C42.1561 25.6312 41.6239 24.541 41.6239 23.0989C41.6239 21.88 42.0016 20.9529 42.757 20.3177C43.5124 19.6825 44.3794 19.1588 45.358 18.7468C44.4652 18.2833 43.6841 17.7339 43.0145 17.0987C42.3621 16.4634 42.036 15.6222 42.036 14.575C42.036 13.3045 42.5424 12.2658 43.5553 11.4589C44.5682 10.6349 45.8816 10.2228 47.4954 10.2228C49.0405 10.2228 50.3195 10.6005 51.3325 11.3559C52.3625 12.1113 52.8776 13.1243 52.8776 14.3947C52.8776 15.4419 52.5342 16.2488 51.8475 16.8154C51.178 17.3819 50.4054 17.8626 49.5298 18.2575C50.5256 18.7382 51.4269 19.3305 52.2338 20.0344C53.0407 20.7383 53.4441 21.7169 53.4441 22.9701ZM50.5084 14.6522C50.5084 13.7595 50.208 13.1243 49.6071 12.7466C49.0062 12.3689 48.3023 12.18 47.4954 12.18C46.6198 12.18 45.8988 12.3774 45.3322 12.7723C44.7828 13.15 44.5082 13.6822 44.5082 14.3689C44.5082 15.1415 44.8601 15.7596 45.564 16.2231C46.2679 16.6866 47.0834 17.133 48.0104 17.5622C48.783 17.1845 49.3925 16.7811 49.8388 16.3518C50.2852 15.9226 50.5084 15.3561 50.5084 14.6522ZM50.9462 23.0474C50.9462 22.1375 50.517 21.425 49.6586 20.91C48.8173 20.3949 47.8645 19.8971 46.8001 19.4164C46.0104 19.8112 45.3408 20.2404 44.7914 20.704C44.242 21.1675 43.9674 21.8285 43.9674 22.6869C43.9674 23.5796 44.285 24.2749 44.9202 24.7728C45.5554 25.2707 46.4052 25.5196 47.4696 25.5196C48.4654 25.5196 49.2895 25.305 49.9418 24.8758C50.6114 24.4294 50.9462 23.82 50.9462 23.0474ZM66.7344 25.5196C66.7344 27.2879 66.2108 28.6099 65.1636 29.4854C64.1163 30.3782 62.7257 30.8245 60.9917 30.8245C59.3607 30.8245 58.1075 30.4554 57.2319 29.7172C56.3735 28.9961 55.8585 28.0691 55.6868 26.936L57.5667 26.3179C57.7384 27.0218 58.0903 27.6141 58.6225 28.0948C59.1547 28.5927 59.9015 28.8416 60.863 28.8416C62.0304 28.8416 62.8802 28.5326 63.4124 27.9145C63.9446 27.3137 64.2107 26.5325 64.2107 25.5711C64.2107 24.1118 63.7214 23.1847 62.7429 22.7899C61.7643 22.3778 60.6226 22.1718 59.3178 22.1718C58.9745 22.1718 58.6054 22.1804 58.2105 22.1976C57.8328 22.2147 57.4637 22.2405 57.1031 22.2748L56.3306 21.528V13.8024H65.9361L66.2194 17.691L64.2622 17.8712L63.9532 15.8111H58.4938V20.2404C58.6826 20.2232 58.88 20.2147 59.0861 20.2147C59.2921 20.2147 59.4895 20.2147 59.6784 20.2147C60.8801 20.2147 62.0132 20.352 63.0776 20.6267C64.1592 20.9014 65.0348 21.425 65.7044 22.1976C66.3911 22.953 66.7344 24.0603 66.7344 25.5196Z" fill="black"/>
<path d="M86.1361 23.4392V26.16C86.0292 26.2888 85.8641 26.4287 85.6409 26.5796C85.4177 26.7274 85.1301 26.8547 84.778 26.9616C84.426 27.0685 84 27.1219 83.5002 27.1219C83.0569 27.1219 82.653 27.0496 82.2883 26.905C81.9237 26.7572 81.6093 26.5419 81.3453 26.259C81.0843 25.9761 80.8832 25.6303 80.7417 25.2216C80.6002 24.8098 80.5295 24.3398 80.5295 23.8117V23.3826C80.5295 22.8545 80.5971 22.3845 80.7323 21.9727C80.8706 21.5609 81.0671 21.2136 81.3217 20.9306C81.5763 20.6477 81.8797 20.4324 82.2317 20.2846C82.5838 20.1369 82.9752 20.063 83.4059 20.063C84.0031 20.063 84.4935 20.1605 84.8771 20.3554C85.2606 20.5471 85.5529 20.8143 85.7541 21.157C85.9584 21.4965 86.0842 21.8863 86.1313 22.3264H84.7592C84.7246 22.0938 84.6586 21.891 84.5611 21.7181C84.4637 21.5452 84.3238 21.41 84.1415 21.3126C83.9623 21.2151 83.7297 21.1664 83.4436 21.1664C83.2078 21.1664 82.9972 21.2151 82.8117 21.3126C82.6294 21.4069 82.4754 21.5468 82.3496 21.7322C82.2239 21.9177 82.128 22.1472 82.062 22.4207C81.996 22.6942 81.963 23.0117 81.963 23.3732V23.8117C81.963 24.1701 81.9975 24.4876 82.0667 24.7642C82.1359 25.0377 82.238 25.2688 82.3732 25.4574C82.5115 25.6428 82.6813 25.7827 82.8825 25.877C83.0837 25.9713 83.3178 26.0185 83.585 26.0185C83.8082 26.0185 83.9937 25.9996 84.1415 25.9619C84.2924 25.9242 84.4134 25.8786 84.5045 25.8252C84.5988 25.7686 84.6712 25.7151 84.7214 25.6649V24.4483H83.4294V23.4392H86.1361ZM89.9649 24.0145H88.2014L88.1919 23.0431H89.6726C89.9335 23.0431 90.1472 23.0101 90.3139 22.9441C90.4805 22.8749 90.6046 22.7759 90.6864 22.647C90.7712 22.515 90.8137 22.3547 90.8137 22.1661C90.8137 21.9523 90.7728 21.7794 90.6911 21.6474C90.6125 21.5153 90.4883 21.4195 90.3186 21.3597C90.152 21.3 89.9366 21.2701 89.6726 21.2701H88.6918V27.0276H87.2772V20.162H89.6726C90.0718 20.162 90.4286 20.1998 90.743 20.2752C91.0605 20.3507 91.3292 20.4654 91.5493 20.6194C91.7693 20.7735 91.9375 20.9684 92.0538 21.2041C92.1701 21.4368 92.2283 21.7134 92.2283 22.034C92.2283 22.317 92.1638 22.5779 92.035 22.8168C91.9092 23.0557 91.7096 23.2506 91.4361 23.4015C91.1658 23.5524 90.8121 23.6357 90.3752 23.6514L89.9649 24.0145ZM89.9036 27.0276H87.8147L88.3664 25.9242H89.9036C90.152 25.9242 90.3547 25.8849 90.5119 25.8063C90.6691 25.7246 90.7854 25.6146 90.8608 25.4762C90.9363 25.3379 90.974 25.1792 90.974 25C90.974 24.7988 90.9394 24.6243 90.8703 24.4766C90.8043 24.3288 90.6974 24.2157 90.5496 24.1371C90.4019 24.0553 90.207 24.0145 89.9649 24.0145H88.6022L88.6116 23.0431H90.3091L90.6345 23.4251C91.0526 23.4188 91.389 23.4926 91.6436 23.6467C91.9014 23.7976 92.0884 23.994 92.2047 24.2361C92.3242 24.4782 92.3839 24.7375 92.3839 25.0141C92.3839 25.4542 92.288 25.8252 92.0963 26.127C91.9045 26.4256 91.6232 26.6504 91.2522 26.8013C90.8844 26.9521 90.4349 27.0276 89.9036 27.0276ZM100.263 25.9242V27.0276H96.8069V25.9242H100.263ZM97.2643 20.162V27.0276H95.8497V20.162H97.2643ZM105.681 25.9242V27.0276H102.027V25.9242H105.681ZM102.489 20.162V27.0276H101.074V20.162H102.489ZM105.205 22.9582V24.0333H102.027V22.9582H105.205ZM105.676 20.162V21.2701H102.027V20.162H105.676ZM107.921 20.162V27.0276H106.506V20.162H107.921ZM110.656 23.095V24.1984H107.534V23.095H110.656ZM110.986 20.162V21.2701H107.534V20.162H110.986ZM114.97 20.162V27.0276H113.561V20.162H114.97ZM117.083 20.162V21.2701H111.481V20.162H117.083Z" fill="#C7C7C7"/>
<path d="M86.1361 23.4392H86.7799V22.7954H86.1361V23.4392ZM86.1361 26.16L86.6316 26.5709L86.7799 26.3922V26.16H86.1361ZM85.6409 26.5796L85.9963 27.1165L86.0015 27.113L85.6409 26.5796ZM82.2883 26.905L82.0466 27.5017L82.051 27.5035L82.2883 26.905ZM81.3453 26.259L80.872 26.6955L80.8746 26.6983L81.3453 26.259ZM80.7417 25.2216L80.1328 25.4308L80.1333 25.4322L80.7417 25.2216ZM80.7323 21.9727L80.1219 21.7677L80.1206 21.7719L80.7323 21.9727ZM84.8771 20.3554L84.5854 20.9293L84.5891 20.9312L84.8771 20.3554ZM85.7541 21.157L85.1989 21.483L85.2025 21.489L85.7541 21.157ZM86.1313 22.3264V22.9702H86.8478L86.7715 22.2578L86.1313 22.3264ZM84.7592 22.3264L84.1224 22.421L84.204 22.9702H84.7592V22.3264ZM84.1415 21.3126L83.8339 21.8782L83.838 21.8804L84.1415 21.3126ZM82.8117 21.3126L83.1075 21.8844L83.1112 21.8825L82.8117 21.3126ZM82.0667 24.7642L81.4421 24.9204L81.4425 24.9221L82.0667 24.7642ZM82.3732 25.4574L81.8498 25.8325L81.8571 25.8423L82.3732 25.4574ZM84.1415 25.9619L83.9853 25.3373L83.9822 25.3381L84.1415 25.9619ZM84.5045 25.8252L84.8301 26.3806L84.8358 26.3772L84.5045 25.8252ZM84.7214 25.6649L85.1767 26.1201L85.3653 25.9315V25.6649H84.7214ZM84.7214 24.4483H85.3653V23.8045H84.7214V24.4483ZM83.4294 24.4483H82.7856V25.0921H83.4294V24.4483ZM83.4294 23.4392V22.7954H82.7856V23.4392H83.4294ZM85.4923 23.4392V26.16H86.7799V23.4392H85.4923ZM85.6405 25.749C85.5889 25.8112 85.4797 25.9115 85.2804 26.0463L86.0015 27.113C86.2485 26.946 86.4695 26.7665 86.6316 26.5709L85.6405 25.749ZM85.2856 26.0428C85.1297 26.146 84.9041 26.2505 84.591 26.3455L84.965 27.5776C85.3562 27.4589 85.7058 27.3088 85.9963 27.1165L85.2856 26.0428ZM84.591 26.3455C84.3169 26.4288 83.9577 26.4781 83.5002 26.4781V27.7657C84.0423 27.7657 84.535 27.7082 84.965 27.5776L84.591 26.3455ZM83.5002 26.4781C83.1277 26.4781 82.8056 26.4175 82.5256 26.3065L82.051 27.5035C82.5004 27.6817 82.9862 27.7657 83.5002 27.7657V26.4781ZM82.5301 26.3083C82.2508 26.1951 82.0149 26.033 81.8159 25.8197L80.8746 26.6983C81.2037 27.0509 81.5966 27.3193 82.0466 27.5017L82.5301 26.3083ZM81.8185 25.8225C81.6247 25.6124 81.4661 25.3463 81.3501 25.011L80.1333 25.4322C80.3002 25.9143 80.5439 26.3397 80.872 26.6954L81.8185 25.8225ZM81.3506 25.0125C81.2366 24.6805 81.1733 24.2833 81.1733 23.8117H79.8857C79.8857 24.3964 79.9639 24.9391 80.1328 25.4308L81.3506 25.0125ZM81.1733 23.8117V23.3826H79.8857V23.8117H81.1733ZM81.1733 23.3826C81.1733 22.9083 81.2341 22.5082 81.344 22.1735L80.1206 21.7719C79.9601 22.2609 79.8857 22.8007 79.8857 23.3826H81.1733ZM81.3426 22.1777C81.4568 21.8376 81.6122 21.5702 81.8002 21.3613L80.8431 20.5C80.5219 20.8569 80.2844 21.2842 80.122 21.7677L81.3426 22.1777ZM81.8002 21.3613C81.9911 21.1492 82.2161 20.9894 82.4809 20.8783L81.9826 19.691C81.5433 19.8754 81.1615 20.1462 80.8431 20.5L81.8002 21.3613ZM82.4809 20.8783C82.7446 20.7676 83.0498 20.7068 83.4059 20.7068V19.4192C82.9006 19.4192 82.4231 19.5062 81.9826 19.691L82.4809 20.8783ZM83.4059 20.7068C83.9389 20.7068 84.3204 20.7946 84.5854 20.9293L85.1687 19.7814C84.6667 19.5263 84.0674 19.4192 83.4059 19.4192V20.7068ZM84.5891 20.9312C84.8705 21.0719 85.0658 21.2562 85.1989 21.483L86.3093 20.831C86.04 20.3724 85.6507 20.0224 85.165 19.7795L84.5891 20.9312ZM85.2025 21.489C85.3531 21.7392 85.4529 22.0371 85.4912 22.395L86.7715 22.2578C86.7155 21.7355 86.5638 21.2538 86.3057 20.825L85.2025 21.489ZM86.1313 21.6826H84.7592V22.9702H86.1313V21.6826ZM85.396 22.2317C85.3519 21.9353 85.2645 21.6548 85.122 21.402L84.0003 22.0342C84.0527 22.1272 84.0973 22.2522 84.1224 22.421L85.396 22.2317ZM85.122 21.402C84.9618 21.1179 84.7305 20.8974 84.4449 20.7448L83.838 21.8804C83.9171 21.9226 83.9655 21.9726 84.0003 22.0342L85.122 21.402ZM84.4491 20.747C84.1451 20.5817 83.7962 20.5226 83.4436 20.5226V21.8102C83.6631 21.8102 83.7794 21.8485 83.8339 21.8782L84.4491 20.747ZM83.4436 20.5226C83.1167 20.5226 82.8012 20.5909 82.5123 20.7427L83.1112 21.8825C83.1932 21.8394 83.2989 21.8102 83.4436 21.8102V20.5226ZM82.516 20.7407C82.2297 20.8888 81.9971 21.105 81.8167 21.371L82.8825 22.0935C82.9537 21.9886 83.0291 21.925 83.1075 21.8844L82.516 20.7407ZM81.8167 21.371C81.6382 21.6344 81.5159 21.9395 81.4362 22.2696L82.6878 22.5718C82.7402 22.3549 82.8096 22.2011 82.8825 22.0935L81.8167 21.371ZM81.4362 22.2696C81.3554 22.6043 81.3192 22.9744 81.3192 23.3732H82.6068C82.6068 23.0489 82.6366 22.7841 82.6878 22.5718L81.4362 22.2696ZM81.3192 23.3732V23.8117H82.6068V23.3732H81.3192ZM81.3192 23.8117C81.3192 24.2099 81.3574 24.5816 81.4421 24.9204L82.6913 24.6081C82.6377 24.3936 82.6068 24.1302 82.6068 23.8117H81.3192ZM81.4425 24.9221C81.5273 25.2572 81.6589 25.5659 81.8499 25.8324L82.8965 25.0823C82.8172 24.9716 82.7444 24.8182 82.6909 24.6064L81.4425 24.9221ZM81.8571 25.8423C82.0561 26.1091 82.308 26.3188 82.6092 26.46L83.1557 25.2941C83.0546 25.2467 82.9669 25.1766 82.8893 25.0725L81.8571 25.8423ZM82.6092 26.46C82.9115 26.6017 83.2422 26.6623 83.585 26.6623V25.3747C83.3935 25.3747 83.2558 25.341 83.1557 25.2941L82.6092 26.46ZM83.585 26.6623C83.8396 26.6623 84.083 26.6413 84.3007 26.5857L83.9822 25.3381C83.9044 25.358 83.7769 25.3747 83.585 25.3747V26.6623ZM84.2976 26.5865C84.4827 26.5402 84.6675 26.4759 84.8301 26.3806L84.179 25.2698C84.1592 25.2813 84.102 25.3082 83.9853 25.3373L84.2976 26.5865ZM84.8358 26.3772C84.9535 26.3066 85.0748 26.222 85.1767 26.1201L84.2662 25.2096C84.2687 25.2072 84.2636 25.2125 84.2468 25.2249C84.2304 25.237 84.2065 25.2532 84.1733 25.2731L84.8358 26.3772ZM85.3653 25.6649V24.4483H84.0776V25.6649H85.3653ZM84.7214 23.8045H83.4294V25.0921H84.7214V23.8045ZM84.0732 24.4483V23.4392H82.7856V24.4483H84.0732ZM83.4294 24.083H86.1361V22.7954H83.4294V24.083ZM89.9649 24.0145V24.6583H90.2089L90.3916 24.4966L89.9649 24.0145ZM88.2014 24.0145L87.5576 24.0207L87.5638 24.6583H88.2014V24.0145ZM88.1919 23.0431V22.3993H87.5419L87.5482 23.0494L88.1919 23.0431ZM90.3139 22.9441L90.551 23.5427L90.5607 23.5387L90.3139 22.9441ZM90.6864 22.647L90.1448 22.2989L90.1427 22.3022L90.6864 22.647ZM90.6911 21.6474L90.1378 21.9767L90.1437 21.9862L90.6911 21.6474ZM90.3186 21.3597L90.1013 21.9658L90.1049 21.967L90.3186 21.3597ZM88.6918 21.2701V20.6263H88.048V21.2701H88.6918ZM88.6918 27.0276V27.6714H89.3356V27.0276H88.6918ZM87.2772 27.0276H86.6334V27.6714H87.2772V27.0276ZM87.2772 20.162V19.5182H86.6334V20.162H87.2772ZM90.743 20.2752L90.5927 20.9012L90.5941 20.9016L90.743 20.2752ZM92.0538 21.2041L91.4764 21.489L91.478 21.492L92.0538 21.2041ZM92.035 22.8168L91.4683 22.5111L91.4652 22.5169L92.035 22.8168ZM91.4361 23.4015L91.1251 22.8378L91.1223 22.8393L91.4361 23.4015ZM90.3752 23.6514L90.352 23.008L90.1213 23.0163L89.9485 23.1693L90.3752 23.6514ZM87.8147 27.0276L87.2389 26.7397L86.773 27.6714H87.8147V27.0276ZM88.3664 25.9242V25.2804H87.9685L87.7906 25.6363L88.3664 25.9242ZM90.5119 25.8063L90.7999 26.3822L90.8089 26.3775L90.5119 25.8063ZM90.8703 24.4766L90.2824 24.7393L90.2872 24.7495L90.8703 24.4766ZM90.5496 24.1371L90.2379 24.7005L90.2473 24.7055L90.5496 24.1371ZM88.6022 24.0145L87.9584 24.0082L87.9521 24.6583H88.6022V24.0145ZM88.6116 23.0431V22.3993H87.974L87.9678 23.0369L88.6116 23.0431ZM90.3091 23.0431L90.7992 22.6256L90.6064 22.3993H90.3091V23.0431ZM90.6345 23.4251L90.1444 23.8425L90.341 24.0733L90.6442 24.0688L90.6345 23.4251ZM91.6436 23.6467L91.3103 24.1976L91.3183 24.2023L91.6436 23.6467ZM92.2047 24.2361L91.6244 24.515L91.6274 24.521L92.2047 24.2361ZM92.0963 26.127L92.638 26.4748L92.6396 26.4722L92.0963 26.127ZM91.2522 26.8013L91.0096 26.2049L91.0079 26.2056L91.2522 26.8013ZM89.9649 23.3707H88.2014V24.6583H89.9649V23.3707ZM88.8451 24.0082L88.8357 23.0369L87.5482 23.0494L87.5576 24.0207L88.8451 24.0082ZM88.1919 23.6869H89.6726V22.3993H88.1919V23.6869ZM89.6726 23.6869C89.9809 23.6869 90.2828 23.6489 90.551 23.5426L90.0767 22.3456C90.0117 22.3713 89.8861 22.3993 89.6726 22.3993V23.6869ZM90.5607 23.5387C90.8268 23.4283 91.0652 23.2517 91.2301 22.9918L90.1427 22.3022C90.1416 22.3039 90.139 22.3079 90.1305 22.3146C90.1213 22.3219 90.1022 22.3349 90.067 22.3495L90.5607 23.5387ZM91.2279 22.9952C91.392 22.74 91.4575 22.453 91.4575 22.1661H90.1699C90.1699 22.2564 90.1505 22.29 90.1448 22.2989L91.2279 22.9952ZM91.4575 22.1661C91.4575 21.876 91.4027 21.5738 91.2385 21.3085L90.1437 21.9862C90.1429 21.985 90.1699 22.0286 90.1699 22.1661H91.4575ZM91.2443 21.3181C91.0758 21.0349 90.8187 20.8532 90.5323 20.7524L90.1049 21.967C90.1344 21.9774 90.1451 21.9857 90.1455 21.986C90.1458 21.9862 90.1446 21.9853 90.1426 21.9831C90.1406 21.9808 90.139 21.9785 90.1379 21.9767L91.2443 21.3181ZM90.5358 20.7537C90.2742 20.6599 89.9779 20.6263 89.6726 20.6263V21.9139C89.8954 21.9139 90.0298 21.9401 90.1013 21.9658L90.5358 20.7537ZM89.6726 20.6263H88.6918V21.9139H89.6726V20.6263ZM88.048 21.2701V27.0276H89.3356V21.2701H88.048ZM88.6918 26.3838H87.2772V27.6714H88.6918V26.3838ZM87.921 27.0276V20.162H86.6334V27.0276H87.921ZM87.2772 20.8058H89.6726V19.5182H87.2772V20.8058ZM89.6726 20.8058C90.0325 20.8058 90.3375 20.84 90.5927 20.9012L90.8932 19.6492C90.5197 19.5595 90.1111 19.5182 89.6726 19.5182V20.8058ZM90.5941 20.9016C90.8491 20.9622 91.0392 21.0482 91.1801 21.1468L91.9185 20.092C91.6192 19.8825 91.2718 19.7391 90.8918 19.6488L90.5941 20.9016ZM91.1801 21.1468C91.3135 21.2402 91.4091 21.3524 91.4765 21.489L92.6312 20.9193C92.4659 20.5843 92.2252 20.3067 91.9185 20.092L91.1801 21.1468ZM91.478 21.492C91.5404 21.6169 91.5845 21.7905 91.5845 22.034H92.8721C92.8721 21.6363 92.7999 21.2566 92.6297 20.9162L91.478 21.492ZM91.5845 22.034C91.5845 22.2149 91.5444 22.3701 91.4683 22.5111L92.6016 23.1225C92.7833 22.7856 92.8721 22.419 92.8721 22.034H91.5845ZM91.4652 22.5169C91.4069 22.6278 91.3061 22.7379 91.1251 22.8378L91.7471 23.9652C92.113 23.7633 92.4116 23.4835 92.6047 23.1166L91.4652 22.5169ZM91.1223 22.8393C90.9701 22.9243 90.7265 22.9945 90.352 23.008L90.3983 24.2948C90.8978 24.2768 91.3614 24.1805 91.7499 23.9636L91.1223 22.8393ZM89.9485 23.1693L89.5382 23.5324L90.3916 24.4966L90.8018 24.1335L89.9485 23.1693ZM89.9036 26.3838H87.8147V27.6714H89.9036V26.3838ZM88.3906 27.3155L88.9423 26.2121L87.7906 25.6363L87.2389 26.7397L88.3906 27.3155ZM88.3664 26.568H89.9036V25.2804H88.3664V26.568ZM89.9036 26.568C90.2132 26.568 90.5241 26.52 90.7998 26.3821L90.224 25.2305C90.1853 25.2498 90.0907 25.2804 89.9036 25.2804V26.568ZM90.8089 26.3775C91.065 26.2443 91.2819 26.0488 91.426 25.7845L90.2956 25.168C90.2889 25.1803 90.2732 25.2048 90.2149 25.2351L90.8089 26.3775ZM91.426 25.7845C91.5598 25.5393 91.6178 25.2719 91.6178 25H90.3302C90.3302 25.0864 90.3128 25.1365 90.2956 25.168L91.426 25.7845ZM91.6178 25C91.6178 24.726 91.5707 24.4544 91.4534 24.2036L90.2872 24.7495C90.3081 24.7943 90.3302 24.8716 90.3302 25H91.6178ZM91.4581 24.2139C91.3315 23.9306 91.1216 23.7121 90.852 23.5687L90.2473 24.7055C90.2641 24.7144 90.2706 24.7209 90.2725 24.7229C90.2743 24.7248 90.2778 24.7288 90.2825 24.7392L91.4581 24.2139ZM90.8613 23.5737C90.5857 23.4213 90.2716 23.3707 89.9649 23.3707V24.6583C90.1423 24.6583 90.2181 24.6894 90.238 24.7004L90.8613 23.5737ZM89.9649 23.3707H88.6022V24.6583H89.9649V23.3707ZM89.246 24.0207L89.2554 23.0494L87.9678 23.0369L87.9584 24.0082L89.246 24.0207ZM88.6116 23.6869H90.3091V22.3993H88.6116V23.6869ZM89.819 23.4606L90.1444 23.8425L91.1246 23.0076L90.7992 22.6256L89.819 23.4606ZM90.6442 24.0688C90.9883 24.0636 91.1928 24.1265 91.3104 24.1975L91.9768 23.0958C91.5851 22.8588 91.1169 22.7739 90.6248 22.7813L90.6442 24.0688ZM91.3183 24.2023C91.4783 24.2959 91.5698 24.4013 91.6244 24.5149L92.785 23.9573C92.607 23.5868 92.3244 23.2992 91.9688 23.0911L91.3183 24.2023ZM91.6274 24.521C91.702 24.6722 91.7401 24.8338 91.7401 25.0141H93.0277C93.0277 24.6412 92.9463 24.2841 92.782 23.9512L91.6274 24.521ZM91.7401 25.0141C91.7401 25.3602 91.6654 25.6046 91.5529 25.7817L92.6396 26.4722C92.9107 26.0457 93.0277 25.5482 93.0277 25.0141H91.7401ZM91.5545 25.7791C91.4435 25.952 91.274 26.0973 91.0096 26.2049L91.4948 27.3976C91.9723 27.2034 92.3655 26.8992 92.638 26.4748L91.5545 25.7791ZM91.0079 26.2056C90.7389 26.316 90.3777 26.3838 89.9036 26.3838V27.6714C90.4921 27.6714 91.0299 27.5883 91.4966 27.3969L91.0079 26.2056ZM100.263 25.9242H100.907V25.2804H100.263V25.9242ZM100.263 27.0276V27.6714H100.907V27.0276H100.263ZM96.8069 27.0276H96.1631V27.6714H96.8069V27.0276ZM96.8069 25.9242V25.2804H96.1631V25.9242H96.8069ZM97.2643 20.162H97.9081V19.5182H97.2643V20.162ZM97.2643 27.0276V27.6714H97.9081V27.0276H97.2643ZM95.8497 27.0276H95.2059V27.6714H95.8497V27.0276ZM95.8497 20.162V19.5182H95.2059V20.162H95.8497ZM99.6194 25.9242V27.0276H100.907V25.9242H99.6194ZM100.263 26.3838H96.8069V27.6714H100.263V26.3838ZM97.4507 27.0276V25.9242H96.1631V27.0276H97.4507ZM96.8069 26.568H100.263V25.2804H96.8069V26.568ZM96.6205 20.162V27.0276H97.9081V20.162H96.6205ZM97.2643 26.3838H95.8497V27.6714H97.2643V26.3838ZM96.4935 27.0276V20.162H95.2059V27.0276H96.4935ZM95.8497 20.8058H97.2643V19.5182H95.8497V20.8058ZM105.681 25.9242H106.325V25.2804H105.681V25.9242ZM105.681 27.0276V27.6714H106.325V27.0276H105.681ZM102.027 27.0276H101.383V27.6714H102.027V27.0276ZM102.027 25.9242V25.2804H101.383V25.9242H102.027ZM102.489 20.162H103.133V19.5182H102.489V20.162ZM102.489 27.0276V27.6714H103.133V27.0276H102.489ZM101.074 27.0276H100.43V27.6714H101.074V27.0276ZM101.074 20.162V19.5182H100.43V20.162H101.074ZM105.205 22.9582H105.849V22.3144H105.205V22.9582ZM105.205 24.0333V24.6771H105.849V24.0333H105.205ZM102.027 24.0333H101.383V24.6771H102.027V24.0333ZM102.027 22.9582V22.3144H101.383V22.9582H102.027ZM105.676 20.162H106.32V19.5182H105.676V20.162ZM105.676 21.2701V21.9139H106.32V21.2701H105.676ZM102.027 21.2701H101.383V21.9139H102.027V21.2701ZM102.027 20.162V19.5182H101.383V20.162H102.027ZM105.037 25.9242V27.0276H106.325V25.9242H105.037ZM105.681 26.3838H102.027V27.6714H105.681V26.3838ZM102.671 27.0276V25.9242H101.383V27.0276H102.671ZM102.027 26.568H105.681V25.2804H102.027V26.568ZM101.845 20.162V27.0276H103.133V20.162H101.845ZM102.489 26.3838H101.074V27.6714H102.489V26.3838ZM101.718 27.0276V20.162H100.43V27.0276H101.718ZM101.074 20.8058H102.489V19.5182H101.074V20.8058ZM104.561 22.9582V24.0333H105.849V22.9582H104.561ZM105.205 23.3895H102.027V24.6771H105.205V23.3895ZM102.671 24.0333V22.9582H101.383V24.0333H102.671ZM102.027 23.602H105.205V22.3144H102.027V23.602ZM105.033 20.162V21.2701H106.32V20.162H105.033ZM105.676 20.6263H102.027V21.9139H105.676V20.6263ZM102.671 21.2701V20.162H101.383V21.2701H102.671ZM102.027 20.8058H105.676V19.5182H102.027V20.8058ZM107.921 20.162H108.565V19.5182H107.921V20.162ZM107.921 27.0276V27.6714H108.565V27.0276H107.921ZM106.506 27.0276H105.863V27.6714H106.506V27.0276ZM106.506 20.162V19.5182H105.863V20.162H106.506ZM110.656 23.095H111.3V22.4512H110.656V23.095ZM110.656 24.1984V24.8422H111.3V24.1984H110.656ZM107.534 24.1984H106.891V24.8422H107.534V24.1984ZM107.534 23.095V22.4512H106.891V23.095H107.534ZM110.986 20.162H111.63V19.5182H110.986V20.162ZM110.986 21.2701V21.9139H111.63V21.2701H110.986ZM107.534 21.2701H106.891V21.9139H107.534V21.2701ZM107.534 20.162V19.5182H106.891V20.162H107.534ZM107.277 20.162V27.0276H108.565V20.162H107.277ZM107.921 26.3838H106.506V27.6714H107.921V26.3838ZM107.15 27.0276V20.162H105.863V27.0276H107.15ZM106.506 20.8058H107.921V19.5182H106.506V20.8058ZM110.012 23.095V24.1984H111.3V23.095H110.012ZM110.656 23.5546H107.534V24.8422H110.656V23.5546ZM108.178 24.1984V23.095H106.891V24.1984H108.178ZM107.534 23.7388H110.656V22.4512H107.534V23.7388ZM110.342 20.162V21.2701H111.63V20.162H110.342ZM110.986 20.6263H107.534V21.9139H110.986V20.6263ZM108.178 21.2701V20.162H106.891V21.2701H108.178ZM107.534 20.8058H110.986V19.5182H107.534V20.8058ZM114.97 20.162H115.614V19.5182H114.97V20.162ZM114.97 27.0276V27.6714H115.614V27.0276H114.97ZM113.561 27.0276H112.917V27.6714H113.561V27.0276ZM113.561 20.162V19.5182H112.917V20.162H113.561ZM117.083 20.162H117.727V19.5182H117.083V20.162ZM117.083 21.2701V21.9139H117.727V21.2701H117.083ZM111.481 21.2701H110.837V21.9139H111.481V21.2701ZM111.481 20.162V19.5182H110.837V20.162H111.481ZM114.327 20.162V27.0276H115.614V20.162H114.327ZM114.97 26.3838H113.561V27.6714H114.97V26.3838ZM114.204 27.0276V20.162H112.917V27.0276H114.204ZM113.561 20.8058H114.97V19.5182H113.561V20.8058ZM116.439 20.162V21.2701H117.727V20.162H116.439ZM117.083 20.6263H111.481V21.9139H117.083V20.6263ZM112.125 21.2701V20.162H110.837V21.2701H112.125ZM111.481 20.8058H117.083V19.5182H111.481V20.8058Z" fill="white"/>
</svg>
