<svg width="10" height="12" viewBox="0 0 10 12" fill="none" xmlns="http://www.w3.org/2000/svg">
<path d="M9.05579 0.653198L7.8636 2.38907C6.81553 1.63892 5.48945 1.29432 4.13175 1.5384C1.41663 2.0265 -0.402798 4.67566 0.0759497 7.44381C0.554698 10.212 3.15311 12.0669 5.86823 11.5788C8.58334 11.0907 10.4028 8.44155 9.92403 5.67341L8.93922 5.85045C9.3222 8.06486 7.86657 10.1843 5.69458 10.5748C3.52259 10.9652 1.44374 9.48118 1.06076 7.26677C0.677777 5.05235 2.1334 2.9329 4.3054 2.54244C5.39163 2.34717 6.45302 2.62247 7.29167 3.22182L6.21673 4.78699L9.66355 4.16735L9.05579 0.653198Z" fill="#7CD4CD"/>
</svg>
